<mxfile host="app.diagrams.net" agent="Mozilla/5.0 (Windows NT 10.0; Win64; x64) AppleWebKit/537.36 (KHTML, like Gecko) Chrome/139.0.0.0 Safari/537.36" version="28.1.1">
  <diagram name="Pagina-1" id="eBTn9I8j1tjIWoHDJJ6Z">
    <mxGraphModel dx="1426" dy="743" grid="1" gridSize="10" guides="1" tooltips="1" connect="1" arrows="1" fold="1" page="1" pageScale="1" pageWidth="827" pageHeight="1169" math="0" shadow="0">
      <root>
        <mxCell id="0" />
        <mxCell id="1" parent="0" />
        <mxCell id="29eazazaUrcbt6ctLZZd-11" style="edgeStyle=orthogonalEdgeStyle;rounded=0;orthogonalLoop=1;jettySize=auto;html=1;entryX=0.5;entryY=0;entryDx=0;entryDy=0;" parent="1" source="29eazazaUrcbt6ctLZZd-3" target="29eazazaUrcbt6ctLZZd-5" edge="1">
          <mxGeometry relative="1" as="geometry" />
        </mxCell>
        <mxCell id="29eazazaUrcbt6ctLZZd-12" style="edgeStyle=orthogonalEdgeStyle;rounded=0;orthogonalLoop=1;jettySize=auto;html=1;" parent="1" source="29eazazaUrcbt6ctLZZd-3" target="29eazazaUrcbt6ctLZZd-6" edge="1">
          <mxGeometry relative="1" as="geometry" />
        </mxCell>
        <mxCell id="29eazazaUrcbt6ctLZZd-13" style="edgeStyle=orthogonalEdgeStyle;rounded=0;orthogonalLoop=1;jettySize=auto;html=1;entryX=0.5;entryY=0;entryDx=0;entryDy=0;" parent="1" source="29eazazaUrcbt6ctLZZd-3" target="29eazazaUrcbt6ctLZZd-7" edge="1">
          <mxGeometry relative="1" as="geometry" />
        </mxCell>
        <mxCell id="29eazazaUrcbt6ctLZZd-3" value="Execute&lt;div&gt;&amp;nbsp;&lt;span style=&quot;white-space-collapse: preserve; color: rgb(222, 227, 229); font-family: monospace; text-align: left; background-color: rgb(33, 39, 40);&quot;&gt;PLC0: PLC Modem Check&lt;/span&gt;&amp;nbsp;&lt;/div&gt;&lt;div&gt;and check results&lt;/div&gt;" style="shape=process;whiteSpace=wrap;html=1;backgroundOutline=1;" parent="1" vertex="1">
          <mxGeometry x="296" y="40" width="250" height="80" as="geometry" />
        </mxCell>
        <mxCell id="LSqM9t2_ffDWfCVQFdg2-2" style="edgeStyle=orthogonalEdgeStyle;rounded=0;orthogonalLoop=1;jettySize=auto;html=1;entryX=0.5;entryY=0;entryDx=0;entryDy=0;" edge="1" parent="1" source="29eazazaUrcbt6ctLZZd-5" target="LSqM9t2_ffDWfCVQFdg2-1">
          <mxGeometry relative="1" as="geometry" />
        </mxCell>
        <mxCell id="29eazazaUrcbt6ctLZZd-5" value="SUCCESS&lt;div&gt;Passive check passed,&lt;/div&gt;&lt;div&gt;&lt;span style=&quot;background-color: transparent; color: light-dark(rgb(0, 0, 0), rgb(255, 255, 255));&quot;&gt;all PLC&amp;nbsp;&lt;/span&gt;&lt;span style=&quot;background-color: transparent; color: light-dark(rgb(0, 0, 0), rgb(255, 255, 255));&quot;&gt;responding&lt;/span&gt;&lt;/div&gt;&lt;div&gt;&lt;span style=&quot;background-color: transparent; color: light-dark(rgb(0, 0, 0), rgb(255, 255, 255));&quot;&gt;as expected&lt;/span&gt;&lt;/div&gt;" style="shape=parallelogram;perimeter=parallelogramPerimeter;whiteSpace=wrap;html=1;fixedSize=1;" parent="1" vertex="1">
          <mxGeometry x="150" y="220" width="154" height="80" as="geometry" />
        </mxCell>
        <mxCell id="29eazazaUrcbt6ctLZZd-19" style="edgeStyle=orthogonalEdgeStyle;rounded=0;orthogonalLoop=1;jettySize=auto;html=1;entryX=0.5;entryY=0;entryDx=0;entryDy=0;" parent="1" source="29eazazaUrcbt6ctLZZd-6" target="29eazazaUrcbt6ctLZZd-17" edge="1">
          <mxGeometry relative="1" as="geometry">
            <Array as="points">
              <mxPoint x="421" y="440" />
              <mxPoint x="521" y="440" />
            </Array>
          </mxGeometry>
        </mxCell>
        <mxCell id="29eazazaUrcbt6ctLZZd-6" value="FAIL&lt;div&gt;Invalid MAC address flashed on one of&lt;/div&gt;&lt;div&gt;the responding PLCs&lt;/div&gt;" style="shape=parallelogram;perimeter=parallelogramPerimeter;whiteSpace=wrap;html=1;fixedSize=1;" parent="1" vertex="1">
          <mxGeometry x="344" y="220" width="154" height="80" as="geometry" />
        </mxCell>
        <mxCell id="29eazazaUrcbt6ctLZZd-16" style="edgeStyle=orthogonalEdgeStyle;rounded=0;orthogonalLoop=1;jettySize=auto;html=1;entryX=0.5;entryY=0;entryDx=0;entryDy=0;" parent="1" source="29eazazaUrcbt6ctLZZd-7" target="29eazazaUrcbt6ctLZZd-15" edge="1">
          <mxGeometry relative="1" as="geometry" />
        </mxCell>
        <mxCell id="29eazazaUrcbt6ctLZZd-7" value="FAIL&lt;br&gt;PLC MAC address&lt;div&gt;different&amp;nbsp;&lt;span style=&quot;background-color: transparent; color: light-dark(rgb(0, 0, 0), rgb(255, 255, 255));&quot;&gt;from the one&lt;/span&gt;&lt;/div&gt;&lt;div&gt;&lt;span style=&quot;background-color: transparent; color: light-dark(rgb(0, 0, 0), rgb(255, 255, 255));&quot;&gt;set in&amp;nbsp;&lt;/span&gt;&lt;span style=&quot;background-color: transparent; color: light-dark(rgb(0, 0, 0), rgb(255, 255, 255));&quot;&gt;hypercharger.conf&lt;/span&gt;&lt;/div&gt;" style="shape=parallelogram;perimeter=parallelogramPerimeter;whiteSpace=wrap;html=1;fixedSize=1;" parent="1" vertex="1">
          <mxGeometry x="537" y="220" width="164" height="80" as="geometry" />
        </mxCell>
        <mxCell id="29eazazaUrcbt6ctLZZd-18" style="edgeStyle=orthogonalEdgeStyle;rounded=0;orthogonalLoop=1;jettySize=auto;html=1;exitX=0.5;exitY=1;exitDx=0;exitDy=0;" parent="1" source="29eazazaUrcbt6ctLZZd-15" target="29eazazaUrcbt6ctLZZd-17" edge="1">
          <mxGeometry relative="1" as="geometry">
            <Array as="points">
              <mxPoint x="619" y="440" />
              <mxPoint x="521" y="440" />
            </Array>
          </mxGeometry>
        </mxCell>
        <mxCell id="29eazazaUrcbt6ctLZZd-15" value="Compare info from lifecycle&lt;div&gt;with info from the test, then&lt;/div&gt;&lt;div&gt;make sure PLCs match&lt;/div&gt;&lt;div&gt;by fixing the misalignment&lt;/div&gt;" style="shape=hexagon;perimeter=hexagonPerimeter2;whiteSpace=wrap;html=1;fixedSize=1;" parent="1" vertex="1">
          <mxGeometry x="530" y="330" width="178" height="80" as="geometry" />
        </mxCell>
        <mxCell id="29eazazaUrcbt6ctLZZd-23" style="edgeStyle=orthogonalEdgeStyle;rounded=0;orthogonalLoop=1;jettySize=auto;html=1;" parent="1" source="29eazazaUrcbt6ctLZZd-17" target="29eazazaUrcbt6ctLZZd-22" edge="1">
          <mxGeometry relative="1" as="geometry" />
        </mxCell>
        <mxCell id="29eazazaUrcbt6ctLZZd-17" value="Execute&amp;nbsp;&lt;span style=&quot;color: rgb(222, 227, 229); font-family: monospace; text-align: left; white-space-collapse: preserve; background-color: rgb(33, 39, 40);&quot;&gt;PLC1_1: Configure PLC Modems (new)&lt;/span&gt;, then repeat the&amp;nbsp;&lt;br&gt;&lt;span style=&quot;color: rgb(222, 227, 229); font-family: monospace; text-align: left; white-space-collapse: preserve; background-color: rgb(33, 39, 40);&quot;&gt; PLC0: PLC Modem Check &lt;/span&gt;" style="shape=process;whiteSpace=wrap;html=1;backgroundOutline=1;" parent="1" vertex="1">
          <mxGeometry x="432" y="489" width="177" height="90" as="geometry" />
        </mxCell>
        <mxCell id="LSqM9t2_ffDWfCVQFdg2-3" style="edgeStyle=orthogonalEdgeStyle;rounded=0;orthogonalLoop=1;jettySize=auto;html=1;entryX=1;entryY=0.5;entryDx=0;entryDy=0;" edge="1" parent="1" source="29eazazaUrcbt6ctLZZd-21" target="LSqM9t2_ffDWfCVQFdg2-1">
          <mxGeometry relative="1" as="geometry" />
        </mxCell>
        <mxCell id="29eazazaUrcbt6ctLZZd-21" value="SUCCESS&lt;div&gt;Passive check passed,&lt;/div&gt;&lt;div&gt;&lt;span style=&quot;background-color: transparent; color: light-dark(rgb(0, 0, 0), rgb(255, 255, 255));&quot;&gt;all PLC&amp;nbsp;&lt;/span&gt;&lt;span style=&quot;background-color: transparent; color: light-dark(rgb(0, 0, 0), rgb(255, 255, 255));&quot;&gt;responding&lt;/span&gt;&lt;/div&gt;&lt;div&gt;&lt;span style=&quot;background-color: transparent; color: light-dark(rgb(0, 0, 0), rgb(255, 255, 255));&quot;&gt;as expected&lt;/span&gt;&lt;/div&gt;" style="shape=parallelogram;perimeter=parallelogramPerimeter;whiteSpace=wrap;html=1;fixedSize=1;" parent="1" vertex="1">
          <mxGeometry x="344" y="680" width="154" height="80" as="geometry" />
        </mxCell>
        <mxCell id="29eazazaUrcbt6ctLZZd-27" style="edgeStyle=orthogonalEdgeStyle;rounded=0;orthogonalLoop=1;jettySize=auto;html=1;" parent="1" source="29eazazaUrcbt6ctLZZd-22" target="29eazazaUrcbt6ctLZZd-26" edge="1">
          <mxGeometry relative="1" as="geometry" />
        </mxCell>
        <mxCell id="29eazazaUrcbt6ctLZZd-22" value="FAIL&lt;div&gt;PLC still reports&amp;nbsp;&lt;span style=&quot;background-color: transparent; color: light-dark(rgb(0, 0, 0), rgb(255, 255, 255));&quot;&gt;invalid MAC&lt;/span&gt;&lt;/div&gt;&lt;div&gt;address&lt;/div&gt;" style="shape=parallelogram;perimeter=parallelogramPerimeter;whiteSpace=wrap;html=1;fixedSize=1;" parent="1" vertex="1">
          <mxGeometry x="542" y="680" width="154" height="80" as="geometry" />
        </mxCell>
        <mxCell id="29eazazaUrcbt6ctLZZd-24" style="edgeStyle=orthogonalEdgeStyle;rounded=0;orthogonalLoop=1;jettySize=auto;html=1;entryX=0.584;entryY=0;entryDx=0;entryDy=0;entryPerimeter=0;" parent="1" source="29eazazaUrcbt6ctLZZd-17" target="29eazazaUrcbt6ctLZZd-21" edge="1">
          <mxGeometry relative="1" as="geometry" />
        </mxCell>
        <mxCell id="29eazazaUrcbt6ctLZZd-25" value="MAC addresses must&lt;div&gt;match between LC and hypercharger.conf at this point.&lt;/div&gt;" style="text;html=1;align=center;verticalAlign=middle;whiteSpace=wrap;rounded=0;" parent="1" vertex="1">
          <mxGeometry x="640" y="602" width="160" height="60" as="geometry" />
        </mxCell>
        <mxCell id="29eazazaUrcbt6ctLZZd-26" value="Escalate to&lt;div&gt;L3 for special&lt;/div&gt;&lt;div&gt;handling&lt;/div&gt;" style="shape=step;perimeter=stepPerimeter;whiteSpace=wrap;html=1;fixedSize=1;" parent="1" vertex="1">
          <mxGeometry x="559" y="820" width="120" height="80" as="geometry" />
        </mxCell>
        <mxCell id="LSqM9t2_ffDWfCVQFdg2-1" value="Observe unit&lt;div&gt;to ensure&lt;/div&gt;&lt;div&gt;KPI are&lt;/div&gt;&lt;div&gt;OK&lt;/div&gt;" style="ellipse;whiteSpace=wrap;html=1;aspect=fixed;" vertex="1" parent="1">
          <mxGeometry x="177" y="810" width="100" height="100" as="geometry" />
        </mxCell>
      </root>
    </mxGraphModel>
  </diagram>
</mxfile>
